# xmcd CD database file
#
# Track frame offsets:
#	150
#	26525
#	58295
#	82350
#	110902
#	144518
#	174138
#	208318
#	247934
#	280025
#
# Disc length: 4202 seconds
#
# Revision: 0
# Processed by: cddbd v1.5.2PL0 Copyright (c) Steve Scherf et al.
# Submitted via: CDex 1.70beta3
#
DISCID=9410680a
DTITLE=Chiko Honda - Live at JZ Brat
DYEAR=2006
DGENRE=Jazz
TTITLE0=All of Me
TTITLE1=Baby Won’t You Please Come Home
TTITLE2=Love for Sale
TTITLE3=Be Anything
TTITLE4=Buck
TTITLE5=Teach Me Tonight
TTITLE6=Let It Be Me
TTITLE7=Mercy Mercy Mercy
TTITLE8=You’ve Got a Friend
TTITLE9=You Give Me Joy Joy
EXTD=YEAR: 2006
EXTT0=
EXTT1=
EXTT2=
EXTT3=
EXTT4=
EXTT5=
EXTT6=
EXTT7=
EXTT8=
EXTT9=
PLAYORDER=
